<mxfile host="65bd71144e">
    <diagram name="Page-1" id="2cc2dc42-3aac-f2a9-1cec-7a8b7cbee084">
        <mxGraphModel dx="2890" dy="1837" grid="1" gridSize="10" guides="1" tooltips="1" connect="1" arrows="1" fold="1" page="1" pageScale="1" pageWidth="10000" pageHeight="10000" background="none" math="0" shadow="0">
            <root>
                <mxCell id="0"/>
                <mxCell id="1" parent="0"/>
                <mxCell id="7026571954dc6520-1" value="" style="strokeWidth=1;shadow=0;dashed=0;align=center;html=1;shape=mxgraph.mockup.containers.browserWindow;rSize=0;strokeColor=#666666;mainText=,;recursiveResize=0;rounded=0;labelBackgroundColor=none;fontFamily=Verdana;fontSize=12" parent="1" vertex="1">
                    <mxGeometry x="30" y="20" width="1050" height="820" as="geometry"/>
                </mxCell>
                <mxCell id="7026571954dc6520-2" value="Page 1" style="strokeWidth=1;shadow=0;dashed=0;align=center;html=1;shape=mxgraph.mockup.containers.anchor;fontSize=17;fontColor=#666666;align=left;" parent="7026571954dc6520-1" vertex="1">
                    <mxGeometry x="60" y="12" width="110" height="26" as="geometry"/>
                </mxCell>
                <mxCell id="7026571954dc6520-3" value="https://www.default.com" style="strokeWidth=1;shadow=0;dashed=0;align=center;html=1;shape=mxgraph.mockup.containers.anchor;rSize=0;fontSize=17;fontColor=#666666;align=left;" parent="7026571954dc6520-1" vertex="1">
                    <mxGeometry x="130" y="60" width="250" height="26" as="geometry"/>
                </mxCell>
                <mxCell id="7026571954dc6520-4" value="Website Name" style="text;html=1;points=[];align=left;verticalAlign=top;spacingTop=-4;fontSize=30;fontFamily=Verdana" parent="7026571954dc6520-1" vertex="1">
                    <mxGeometry x="30" y="140" width="340" height="50" as="geometry"/>
                </mxCell>
                <mxCell id="7026571954dc6520-6" value="Section 1" style="text;html=1;points=[];align=left;verticalAlign=top;spacingTop=-4;fontSize=15;fontFamily=Verdana" parent="7026571954dc6520-1" vertex="1">
                    <mxGeometry x="540" y="140" width="170" height="30" as="geometry"/>
                </mxCell>
                <mxCell id="7026571954dc6520-7" value="Some default text to fill some space, and&amp;nbsp;&lt;span&gt;something more so there is more text&lt;/span&gt;" style="text;html=1;points=[];align=left;verticalAlign=top;spacingTop=-4;fontSize=12;fontFamily=Verdana;whiteSpace=wrap;" parent="7026571954dc6520-1" vertex="1">
                    <mxGeometry x="540" y="170" width="240" height="40" as="geometry"/>
                </mxCell>
                <mxCell id="7026571954dc6520-8" value="Section 2" style="text;html=1;points=[];align=left;verticalAlign=top;spacingTop=-4;fontSize=15;fontFamily=Verdana" parent="7026571954dc6520-1" vertex="1">
                    <mxGeometry x="540" y="230" width="170" height="30" as="geometry"/>
                </mxCell>
                <mxCell id="7026571954dc6520-9" value="Some default text to fill some space, and&amp;nbsp;&lt;span&gt;something more so there is more text&lt;/span&gt;" style="text;html=1;points=[];align=left;verticalAlign=top;spacingTop=-4;fontSize=12;fontFamily=Verdana;whiteSpace=wrap;" parent="7026571954dc6520-1" vertex="1">
                    <mxGeometry x="540" y="260" width="240" height="40" as="geometry"/>
                </mxCell>
                <mxCell id="7026571954dc6520-10" value="Section 1" style="text;html=1;points=[];align=left;verticalAlign=top;spacingTop=-4;fontSize=15;fontFamily=Verdana" parent="7026571954dc6520-1" vertex="1">
                    <mxGeometry x="800" y="140" width="170" height="30" as="geometry"/>
                </mxCell>
                <mxCell id="7026571954dc6520-11" value="Some default text to fill some space, and&amp;nbsp;&lt;span&gt;something more so there is more text&lt;/span&gt;" style="text;html=1;points=[];align=left;verticalAlign=top;spacingTop=-4;fontSize=12;fontFamily=Verdana;whiteSpace=wrap;" parent="7026571954dc6520-1" vertex="1">
                    <mxGeometry x="800" y="170" width="240" height="40" as="geometry"/>
                </mxCell>
                <mxCell id="7026571954dc6520-12" value="Search" style="text;html=1;points=[];align=left;verticalAlign=top;spacingTop=-4;fontSize=15;fontFamily=Verdana" parent="7026571954dc6520-1" vertex="1">
                    <mxGeometry x="800" y="230" width="170" height="30" as="geometry"/>
                </mxCell>
                <mxCell id="7026571954dc6520-14" value="Search" style="strokeWidth=1;shadow=0;dashed=0;align=center;html=1;shape=mxgraph.mockup.forms.searchBox;strokeColor=#999999;mainText=;strokeColor2=#008cff;fontColor=#666666;fontSize=17;align=left;spacingLeft=3;rounded=0;labelBackgroundColor=none;" parent="7026571954dc6520-1" vertex="1">
                    <mxGeometry x="800" y="260" width="220" height="30" as="geometry"/>
                </mxCell>
                <mxCell id="7026571954dc6520-15" value="" style="verticalLabelPosition=bottom;shadow=0;dashed=0;align=center;html=1;verticalAlign=top;strokeWidth=1;shape=mxgraph.mockup.markup.line;strokeColor=#999999;rounded=0;labelBackgroundColor=none;fillColor=#ffffff;fontFamily=Verdana;fontSize=12;fontColor=#000000;" parent="7026571954dc6520-1" vertex="1">
                    <mxGeometry y="310" width="1050" height="20" as="geometry"/>
                </mxCell>
                <mxCell id="7026571954dc6520-16" value="Title 1" style="text;html=1;points=[];align=left;verticalAlign=top;spacingTop=-4;fontSize=15;fontFamily=Verdana" parent="7026571954dc6520-1" vertex="1">
                    <mxGeometry x="20" y="330" width="170" height="30" as="geometry"/>
                </mxCell>
                <mxCell id="7026571954dc6520-17" value="Lorem ipsum dolor sit amet, consectetur adipisicing elit, sed do eiusmod tempor incididunt ut labore et dolore magna aliqua. Ut enim ad minim veniam, quis nostrud exercitation ullamco laboris nisi ut aliquip ex ea commodo consequat. Duis aute irure dolor in reprehenderit in voluptate velit esse cillum dolore eu fugiat nulla pariatur. Excepteur sint occaecat cupidatat non proident, sunt in culpa qui officia deserunt mollit anim id est laborum.&#10;Sed ut perspiciatis unde omnis iste natus error sit voluptatem accusantium doloremque laudantium, totam rem aperiam, eaque ipsa quae ab illo inventore veritatis et quasi architecto beatae vitae dicta sunt explicabo. Nemo enim ipsam voluptatem quia voluptas sit aspernatur aut odit aut fugit, sed quia consequuntur magni dolores eos qui ratione voluptatem sequi nesciunt. Neque porro quisquam est, qui dolorem ipsum quia dolor sit amet, consectetur, adipisci velit, sed quia non numquam eius modi tempora incidunt ut labore et dolore magnam aliquam quaerat voluptatem. Ut enim ad minima veniam, quis nostrum exercitationem ullam corporis suscipit laboriosam, nisi ut aliquid ex ea commodi consequatur? Quis autem vel eum iure reprehenderit qui in ea voluptate velit esse quam nihil molestiae consequatur, vel illum qui dolorem eum fugiat quo voluptas nulla pariatur?" style="text;spacingTop=-5;whiteSpace=wrap;html=1;align=left;fontSize=12;fontFamily=Helvetica;fillColor=none;strokeColor=none;rounded=0;shadow=1;labelBackgroundColor=none;" parent="7026571954dc6520-1" vertex="1">
                    <mxGeometry x="20" y="370" width="570" height="240" as="geometry"/>
                </mxCell>
                <mxCell id="7026571954dc6520-18" value="Button 1" style="strokeWidth=1;shadow=0;dashed=0;align=center;html=1;shape=mxgraph.mockup.buttons.button;strokeColor=#666666;mainText=;buttonStyle=round;fontSize=17;fontStyle=0;fillColor=none;whiteSpace=wrap;rounded=0;labelBackgroundColor=none;" parent="7026571954dc6520-1" vertex="1">
                    <mxGeometry x="790" y="360" width="190" height="30" as="geometry"/>
                </mxCell>
                <mxCell id="7026571954dc6520-19" value="Button 2" style="strokeWidth=1;shadow=0;dashed=0;align=center;html=1;shape=mxgraph.mockup.buttons.button;strokeColor=#666666;mainText=;buttonStyle=round;fontSize=17;fontStyle=0;fillColor=none;whiteSpace=wrap;rounded=0;labelBackgroundColor=none;" parent="7026571954dc6520-1" vertex="1">
                    <mxGeometry x="790" y="405" width="190" height="30" as="geometry"/>
                </mxCell>
                <mxCell id="7026571954dc6520-20" value="Some default text to fill some space, and&amp;nbsp;&lt;span&gt;something more so there is more text&lt;/span&gt;" style="text;html=1;points=[];align=left;verticalAlign=top;spacingTop=-4;fontSize=12;fontFamily=Verdana;whiteSpace=wrap;" parent="7026571954dc6520-1" vertex="1">
                    <mxGeometry x="790" y="450" width="240" height="40" as="geometry"/>
                </mxCell>
                <mxCell id="7026571954dc6520-21" value="" style="verticalLabelPosition=bottom;shadow=0;dashed=0;align=center;html=1;verticalAlign=top;strokeWidth=1;shape=mxgraph.mockup.markup.line;strokeColor=#999999;rounded=0;labelBackgroundColor=none;fillColor=#ffffff;fontFamily=Verdana;fontSize=12;fontColor=#000000;" parent="7026571954dc6520-1" vertex="1">
                    <mxGeometry y="580" width="1050" height="20" as="geometry"/>
                </mxCell>
                <mxCell id="7026571954dc6520-22" value="" style="verticalLabelPosition=bottom;shadow=0;dashed=0;align=center;html=1;verticalAlign=top;strokeWidth=1;shape=mxgraph.mockup.graphics.simpleIcon;strokeColor=#999999;fillColor=#ffffff;rounded=0;labelBackgroundColor=none;fontFamily=Verdana;fontSize=12;fontColor=#000000;" parent="7026571954dc6520-1" vertex="1">
                    <mxGeometry x="15" y="610" width="200" height="200" as="geometry"/>
                </mxCell>
                <mxCell id="7026571954dc6520-31" value="Title 2" style="text;html=1;points=[];align=left;verticalAlign=top;spacingTop=-4;fontSize=15;fontFamily=Verdana" parent="7026571954dc6520-1" vertex="1">
                    <mxGeometry x="280" y="610" width="170" height="30" as="geometry"/>
                </mxCell>
                <mxCell id="7026571954dc6520-32" value="Title 3" style="text;html=1;points=[];align=left;verticalAlign=top;spacingTop=-4;fontSize=15;fontFamily=Verdana" parent="7026571954dc6520-1" vertex="1">
                    <mxGeometry x="780" y="610" width="170" height="30" as="geometry"/>
                </mxCell>
                <mxCell id="7026571954dc6520-33" value="&lt;div style=&quot;text-align: justify&quot;&gt;&lt;span&gt;Some default text to fill some space, and&amp;nbsp;&lt;/span&gt;&lt;span&gt;something more so there is more text&lt;/span&gt;&lt;/div&gt;&lt;div style=&quot;text-align: justify&quot;&gt;&lt;hr id=&quot;null&quot; style=&quot;text-align: justify&quot;&gt;&lt;span&gt;&lt;div style=&quot;text-align: justify&quot;&gt;&lt;span&gt;Some default text to fill some space, and&amp;nbsp;&lt;/span&gt;&lt;span&gt;something more so there is more text&lt;/span&gt;&lt;/div&gt;&lt;/span&gt;&lt;/div&gt;&lt;hr id=&quot;null&quot; style=&quot;text-align: justify&quot;&gt;&lt;span&gt;&lt;div style=&quot;text-align: justify&quot;&gt;&lt;span&gt;Some default text to fill some space, and&amp;nbsp;&lt;/span&gt;&lt;span&gt;something more so there is more text&lt;/span&gt;&lt;/div&gt;&lt;/span&gt;&lt;hr id=&quot;null&quot; style=&quot;text-align: justify&quot;&gt;&lt;span&gt;&lt;div style=&quot;text-align: justify&quot;&gt;&lt;span&gt;Some default text to fill some space, and&amp;nbsp;&lt;/span&gt;&lt;span&gt;something more so there is more text&lt;/span&gt;&lt;/div&gt;&lt;/span&gt;&lt;hr id=&quot;null&quot; style=&quot;text-align: left&quot;&gt;" style="whiteSpace=wrap;html=1;rounded=0;shadow=0;labelBackgroundColor=none;strokeWidth=1;fontFamily=Verdana;fontSize=12;align=center;verticalAlign=top;" parent="7026571954dc6520-1" vertex="1">
                    <mxGeometry x="780" y="640" width="260" height="170" as="geometry"/>
                </mxCell>
                <mxCell id="7026571954dc6520-34" value="Some default text to fill some space, and&amp;nbsp;&lt;span&gt;something more so there is more text&lt;/span&gt;" style="text;html=1;points=[];align=left;verticalAlign=top;spacingTop=-4;fontSize=12;fontFamily=Verdana;whiteSpace=wrap;" parent="7026571954dc6520-1" vertex="1">
                    <mxGeometry x="270" y="650" width="470" height="40" as="geometry"/>
                </mxCell>
                <mxCell id="7026571954dc6520-36" value="Lorem ipsum dolor sit amet, consectetur adipisicing elit, sed do eiusmod tempor incididunt ut labore et dolore magna aliqua. Ut enim ad minim veniam, quis nostrud exercitation ullamco laboris nisi ut aliquip ex ea commodo consequat. Duis aute irure dolor in reprehenderit in voluptate velit esse cillum dolore eu fugiat nulla pariatur. Excepteur sint occaecat cupidatat non proident, sunt in culpa qui officia deserunt mollit anim id est laborum.&lt;br&gt;Sed ut perspiciatis unde omnis iste natus error sit voluptatem accusantium doloremque laudantium, totam rem aperiam, eaque ipsa quae ab illo inventore veritatis et quasi architecto beatae vitae dicta sunt explicabo.&amp;nbsp;" style="text;spacingTop=-5;whiteSpace=wrap;html=1;align=left;fontSize=12;fontFamily=Helvetica;fillColor=none;strokeColor=none;rounded=0;shadow=1;labelBackgroundColor=none;" parent="1" vertex="1">
                    <mxGeometry x="300" y="705" width="490" height="125" as="geometry"/>
                </mxCell>
                <mxCell id="XVaBbjTai6L_YX0A8KyG-26" value="" style="group" parent="1" vertex="1" connectable="0">
                    <mxGeometry x="1420" y="120" width="420" height="938" as="geometry"/>
                </mxCell>
                <mxCell id="XVaBbjTai6L_YX0A8KyG-1" value="" style="strokeWidth=1;shadow=0;dashed=0;align=center;html=1;shape=mxgraph.mockup.containers.browserWindow;rSize=0;strokeColor=#666666;mainText=,;recursiveResize=0;rounded=0;labelBackgroundColor=none;fontFamily=Verdana;fontSize=12;container=0;" parent="XVaBbjTai6L_YX0A8KyG-26" vertex="1">
                    <mxGeometry y="19" width="420" height="900" as="geometry"/>
                </mxCell>
                <mxCell id="XVaBbjTai6L_YX0A8KyG-2" value="&lt;font style=&quot;font-size: 24px&quot;&gt;Landing Page&lt;/font&gt;" style="strokeWidth=1;shadow=0;dashed=0;align=center;html=1;shape=mxgraph.mockup.containers.anchor;fontSize=17;fontColor=#666666;align=left;" parent="XVaBbjTai6L_YX0A8KyG-26" vertex="1">
                    <mxGeometry width="110" height="26" as="geometry"/>
                </mxCell>
                <mxCell id="16" value="" style="rounded=0;whiteSpace=wrap;html=1;fontSize=24;" vertex="1" parent="XVaBbjTai6L_YX0A8KyG-26">
                    <mxGeometry y="139" width="420" height="50" as="geometry"/>
                </mxCell>
                <mxCell id="15" value="App Name" style="text;html=1;strokeColor=none;fillColor=none;align=center;verticalAlign=middle;whiteSpace=wrap;rounded=0;fontSize=24;" vertex="1" parent="XVaBbjTai6L_YX0A8KyG-26">
                    <mxGeometry x="127.5" y="149" width="165" height="30" as="geometry"/>
                </mxCell>
                <mxCell id="18" value="" style="rounded=1;whiteSpace=wrap;html=1;fontSize=24;" vertex="1" parent="XVaBbjTai6L_YX0A8KyG-26">
                    <mxGeometry x="20" y="230" width="380" height="220" as="geometry"/>
                </mxCell>
                <mxCell id="19" value="Please enter your name" style="text;html=1;strokeColor=none;fillColor=none;align=center;verticalAlign=middle;whiteSpace=wrap;rounded=0;fontSize=24;" vertex="1" parent="XVaBbjTai6L_YX0A8KyG-26">
                    <mxGeometry x="50" y="260" width="320" height="50" as="geometry"/>
                </mxCell>
                <mxCell id="21" value="Text Input" style="rounded=0;whiteSpace=wrap;html=1;fontSize=24;" vertex="1" parent="XVaBbjTai6L_YX0A8KyG-26">
                    <mxGeometry x="80" y="330" width="250" height="40" as="geometry"/>
                </mxCell>
                <mxCell id="22" value="Go!" style="rounded=1;whiteSpace=wrap;html=1;fontSize=24;" vertex="1" parent="XVaBbjTai6L_YX0A8KyG-26">
                    <mxGeometry x="120" y="390" width="160" height="40" as="geometry"/>
                </mxCell>
                <mxCell id="3" value="v" style="group" vertex="1" connectable="0" parent="1">
                    <mxGeometry x="1960" y="110" width="420" height="938" as="geometry"/>
                </mxCell>
                <mxCell id="4" value="" style="strokeWidth=1;shadow=0;dashed=0;align=center;html=1;shape=mxgraph.mockup.containers.browserWindow;rSize=0;strokeColor=#666666;mainText=,;recursiveResize=0;rounded=0;labelBackgroundColor=none;fontFamily=Verdana;fontSize=12;container=0;" vertex="1" parent="3">
                    <mxGeometry y="38" width="420" height="900" as="geometry"/>
                </mxCell>
                <mxCell id="5" value="welcome" style="strokeWidth=1;shadow=0;dashed=0;align=center;html=1;shape=mxgraph.mockup.containers.anchor;fontSize=25;fontColor=#666666;align=left;" vertex="1" parent="3">
                    <mxGeometry width="110" height="26" as="geometry"/>
                </mxCell>
                <mxCell id="20" value="Welcome &amp;lt;name&amp;gt;!&lt;br&gt;&lt;br&gt;Do you think you're an expert?&amp;nbsp; Test your knowledge by answering &amp;lt;number&amp;gt; questions on &amp;lt;categories&amp;gt;.&amp;nbsp;" style="rounded=1;whiteSpace=wrap;html=1;fontSize=24;" vertex="1" parent="3">
                    <mxGeometry x="20" y="230" width="380" height="220" as="geometry"/>
                </mxCell>
                <mxCell id="29" value="Go!" style="rounded=1;whiteSpace=wrap;html=1;fontSize=24;" vertex="1" parent="3">
                    <mxGeometry x="130" y="480" width="160" height="40" as="geometry"/>
                </mxCell>
                <mxCell id="32" value="App Name" style="rounded=0;whiteSpace=wrap;html=1;fontSize=24;" vertex="1" parent="3">
                    <mxGeometry y="150" width="420" height="50" as="geometry"/>
                </mxCell>
                <mxCell id="6" value="" style="group" vertex="1" connectable="0" parent="1">
                    <mxGeometry x="4700" y="150" width="420" height="957" as="geometry"/>
                </mxCell>
                <mxCell id="7" value="" style="strokeWidth=1;shadow=0;dashed=0;align=center;html=1;shape=mxgraph.mockup.containers.browserWindow;rSize=0;strokeColor=#666666;mainText=,;recursiveResize=0;rounded=0;labelBackgroundColor=none;fontFamily=Verdana;fontSize=12;container=0;" vertex="1" parent="6">
                    <mxGeometry y="38" width="420" height="900" as="geometry"/>
                </mxCell>
                <mxCell id="8" value="&lt;font style=&quot;font-size: 24px&quot;&gt;End of Question Round&lt;/font&gt;" style="strokeWidth=1;shadow=0;dashed=0;align=center;html=1;shape=mxgraph.mockup.containers.anchor;fontSize=17;fontColor=#666666;align=left;" vertex="1" parent="6">
                    <mxGeometry x="100" width="240" height="40" as="geometry"/>
                </mxCell>
                <mxCell id="34" value="Congratulations you scored:&lt;br&gt;&amp;nbsp;N out of N" style="rounded=1;whiteSpace=wrap;html=1;fontSize=24;" vertex="1" parent="6">
                    <mxGeometry x="30" y="170" width="360" height="240" as="geometry"/>
                </mxCell>
                <mxCell id="64" value="&lt;font style=&quot;font-size: 40px&quot;&gt;CSS&lt;span style=&quot;white-space: pre&quot;&gt;&#9;&lt;/span&gt;&lt;br&gt;3 / 2&lt;br&gt;&lt;/font&gt;" style="rounded=1;whiteSpace=wrap;html=1;verticalAlign=top;" vertex="1" parent="6">
                    <mxGeometry x="40" y="427.5" width="350" height="132.5" as="geometry"/>
                </mxCell>
                <mxCell id="67" value="&lt;font style=&quot;font-size: 40px&quot;&gt;React&lt;br&gt;3 / 2&lt;br&gt;&lt;/font&gt;" style="rounded=1;whiteSpace=wrap;html=1;verticalAlign=top;" vertex="1" parent="6">
                    <mxGeometry x="40" y="759" width="350" height="132.5" as="geometry"/>
                </mxCell>
                <mxCell id="68" value="&lt;font style=&quot;font-size: 40px&quot;&gt;Javascript&lt;br&gt;3 / 2&lt;br&gt;&lt;/font&gt;" style="rounded=1;whiteSpace=wrap;html=1;verticalAlign=top;" vertex="1" parent="6">
                    <mxGeometry x="30" y="590" width="350" height="132.5" as="geometry"/>
                </mxCell>
                <mxCell id="9" value="" style="group;" connectable="0" vertex="1" parent="1">
                    <mxGeometry x="2540" y="70" width="420" height="938" as="geometry"/>
                </mxCell>
                <mxCell id="10" value="" style="strokeWidth=1;shadow=0;dashed=0;align=center;html=1;shape=mxgraph.mockup.containers.browserWindow;rSize=0;strokeColor=#666666;mainText=,;recursiveResize=0;rounded=0;labelBackgroundColor=none;fontFamily=Verdana;fontSize=12;container=0;" vertex="1" parent="9">
                    <mxGeometry y="38" width="420" height="900" as="geometry"/>
                </mxCell>
                <mxCell id="11" value="TrueFalse" style="strokeWidth=1;shadow=0;dashed=0;align=center;html=1;shape=mxgraph.mockup.containers.anchor;fontSize=17;fontColor=#666666;align=left;" vertex="1" parent="9">
                    <mxGeometry width="110" height="26" as="geometry"/>
                </mxCell>
                <mxCell id="26" value="&lt;font style=&quot;font-size: 24px&quot;&gt;Category&lt;/font&gt;" style="rounded=1;whiteSpace=wrap;html=1;" vertex="1" parent="9">
                    <mxGeometry x="20" y="160" width="360" height="100" as="geometry"/>
                </mxCell>
                <mxCell id="30" value="Statement" style="rounded=1;whiteSpace=wrap;html=1;fontSize=24;" vertex="1" parent="9">
                    <mxGeometry x="20" y="280" width="350" height="210" as="geometry"/>
                </mxCell>
                <mxCell id="33" value="True" style="rounded=1;whiteSpace=wrap;html=1;fontSize=24;fillColor=#0050ef;fontColor=#ffffff;strokeColor=#001DBC;" vertex="1" parent="9">
                    <mxGeometry x="40" y="520" width="310" height="110" as="geometry"/>
                </mxCell>
                <mxCell id="39" value="False" style="rounded=1;whiteSpace=wrap;html=1;fontSize=24;fillColor=#0050ef;fontColor=#ffffff;strokeColor=#001DBC;" vertex="1" parent="9">
                    <mxGeometry x="40" y="660" width="310" height="100" as="geometry"/>
                </mxCell>
                <mxCell id="23" value="" style="group" connectable="0" vertex="1" parent="1">
                    <mxGeometry x="3080" y="90" width="420" height="938" as="geometry"/>
                </mxCell>
                <mxCell id="24" value="" style="strokeWidth=1;shadow=0;dashed=0;align=center;html=1;shape=mxgraph.mockup.containers.browserWindow;rSize=0;strokeColor=#666666;mainText=,;recursiveResize=0;rounded=0;labelBackgroundColor=none;fontFamily=Verdana;fontSize=12;container=0;" vertex="1" parent="23">
                    <mxGeometry y="38" width="420" height="900" as="geometry"/>
                </mxCell>
                <mxCell id="25" value="Answer" style="strokeWidth=1;shadow=0;dashed=0;align=center;html=1;shape=mxgraph.mockup.containers.anchor;fontSize=17;fontColor=#666666;align=left;" vertex="1" parent="23">
                    <mxGeometry width="110" height="26" as="geometry"/>
                </mxCell>
                <mxCell id="36" value="&lt;font style=&quot;font-size: 24px&quot;&gt;Category&lt;/font&gt;" style="rounded=1;whiteSpace=wrap;html=1;" vertex="1" parent="23">
                    <mxGeometry x="30" y="140" width="360" height="100" as="geometry"/>
                </mxCell>
                <mxCell id="37" value="Statement correct answer revealed" style="rounded=1;whiteSpace=wrap;html=1;fontSize=24;" vertex="1" parent="23">
                    <mxGeometry x="30" y="260" width="350" height="210" as="geometry"/>
                </mxCell>
                <mxCell id="38" value="Answer, rolling score?" style="rounded=1;whiteSpace=wrap;html=1;fontSize=24;" vertex="1" parent="23">
                    <mxGeometry x="50" y="500" width="310" height="230" as="geometry"/>
                </mxCell>
                <mxCell id="40" value="Next question" style="rounded=1;whiteSpace=wrap;html=1;fontSize=24;" vertex="1" parent="23">
                    <mxGeometry x="50" y="760" width="310" height="100" as="geometry"/>
                </mxCell>
                <mxCell id="41" value="" style="group" connectable="0" vertex="1" parent="1">
                    <mxGeometry x="3700" y="140" width="420" height="938" as="geometry"/>
                </mxCell>
                <mxCell id="42" value="" style="strokeWidth=1;shadow=0;dashed=0;align=center;html=1;shape=mxgraph.mockup.containers.browserWindow;rSize=0;strokeColor=#666666;mainText=,;recursiveResize=0;rounded=0;labelBackgroundColor=none;fontFamily=Verdana;fontSize=12;container=0;" vertex="1" parent="41">
                    <mxGeometry y="10" width="420" height="900" as="geometry"/>
                </mxCell>
                <mxCell id="43" value="Multiple Choice" style="strokeWidth=1;shadow=0;dashed=0;align=center;html=1;shape=mxgraph.mockup.containers.anchor;fontSize=17;fontColor=#666666;align=left;" vertex="1" parent="41">
                    <mxGeometry width="110" height="26" as="geometry"/>
                </mxCell>
                <mxCell id="44" value="&lt;font style=&quot;font-size: 24px&quot;&gt;Category&lt;/font&gt;" style="rounded=1;whiteSpace=wrap;html=1;" vertex="1" parent="41">
                    <mxGeometry x="20" y="160" width="360" height="100" as="geometry"/>
                </mxCell>
                <mxCell id="45" value="Question" style="rounded=1;whiteSpace=wrap;html=1;fontSize=24;" vertex="1" parent="41">
                    <mxGeometry x="20" y="280" width="350" height="200" as="geometry"/>
                </mxCell>
                <mxCell id="46" value="Option 1" style="rounded=1;whiteSpace=wrap;html=1;fontSize=24;" vertex="1" parent="41">
                    <mxGeometry x="40" y="490" width="310" height="80" as="geometry"/>
                </mxCell>
                <mxCell id="47" value="Option 2" style="rounded=1;whiteSpace=wrap;html=1;fontSize=24;" vertex="1" parent="41">
                    <mxGeometry x="40" y="580" width="310" height="80" as="geometry"/>
                </mxCell>
                <mxCell id="56" value="Option 3" style="rounded=1;whiteSpace=wrap;html=1;fontSize=24;" vertex="1" parent="41">
                    <mxGeometry x="40" y="670" width="310" height="80" as="geometry"/>
                </mxCell>
                <mxCell id="57" value="Option 4" style="rounded=1;whiteSpace=wrap;html=1;fontSize=24;" vertex="1" parent="41">
                    <mxGeometry x="40" y="760" width="310" height="80" as="geometry"/>
                </mxCell>
                <mxCell id="48" value="" style="group" connectable="0" vertex="1" parent="1">
                    <mxGeometry x="4190" y="140" width="420" height="938" as="geometry"/>
                </mxCell>
                <mxCell id="49" value="" style="strokeWidth=1;shadow=0;dashed=0;align=center;html=1;shape=mxgraph.mockup.containers.browserWindow;rSize=0;strokeColor=#666666;mainText=,;recursiveResize=0;rounded=0;labelBackgroundColor=none;fontFamily=Verdana;fontSize=12;container=0;" vertex="1" parent="48">
                    <mxGeometry y="38" width="420" height="900" as="geometry"/>
                </mxCell>
                <mxCell id="50" value="Answer" style="strokeWidth=1;shadow=0;dashed=0;align=center;html=1;shape=mxgraph.mockup.containers.anchor;fontSize=17;fontColor=#666666;align=left;" vertex="1" parent="48">
                    <mxGeometry width="110" height="26" as="geometry"/>
                </mxCell>
                <mxCell id="51" value="&lt;font style=&quot;font-size: 24px&quot;&gt;Category&lt;/font&gt;" style="rounded=1;whiteSpace=wrap;html=1;" vertex="1" parent="48">
                    <mxGeometry x="30" y="140" width="360" height="100" as="geometry"/>
                </mxCell>
                <mxCell id="52" value="Question correct answer revealed" style="rounded=1;whiteSpace=wrap;html=1;fontSize=24;" vertex="1" parent="48">
                    <mxGeometry x="30" y="260" width="350" height="210" as="geometry"/>
                </mxCell>
                <mxCell id="53" value="Answer, rolling score?" style="rounded=1;whiteSpace=wrap;html=1;fontSize=24;" vertex="1" parent="48">
                    <mxGeometry x="50" y="500" width="310" height="230" as="geometry"/>
                </mxCell>
                <mxCell id="54" value="Next question" style="rounded=1;whiteSpace=wrap;html=1;fontSize=24;" vertex="1" parent="48">
                    <mxGeometry x="50" y="760" width="310" height="100" as="geometry"/>
                </mxCell>
            </root>
        </mxGraphModel>
    </diagram>
</mxfile>